<svg width="1200" height="420" viewBox="0 0 1200 420" fill="none" xmlns="http://www.w3.org/2000/svg">
  <defs>
    <linearGradient id="bg" x1="120" y1="0" x2="1080" y2="420" gradientUnits="userSpaceOnUse">
      <stop stop-color="#01030E"/>
      <stop offset="0.35" stop-color="#021B66"/>
      <stop offset="0.7" stop-color="#1B8EFF"/>
      <stop offset="1" stop-color="#7ED8FF"/>
    </linearGradient>
    <linearGradient id="line" x1="0" y1="0" x2="1" y2="1">
      <stop stop-color="#A7E8FF" stop-opacity="0.7"/>
      <stop offset="1" stop-color="#7ED8FF" stop-opacity="0.15"/>
    </linearGradient>
  </defs>

  <rect width="1200" height="420" rx="28" fill="url(#bg)"/>
  <rect x="1" y="1" width="1198" height="418" rx="27" stroke="#9FDFFF" stroke-opacity="0.25"/>

  <circle cx="960" cy="80" r="220" fill="#A7E8FF" fill-opacity="0.12"/>
  <circle cx="160" cy="340" r="210" fill="#1B8EFF" fill-opacity="0.18"/>

  <g stroke="url(#line)" stroke-width="1">
    <path d="M0 320H1200"/>
    <path d="M0 280H1200"/>
    <path d="M0 240H1200"/>
    <path d="M0 200H1200"/>
    <path d="M0 160H1200"/>
    <path d="M0 120H1200"/>
    <path d="M0 80H1200"/>
  </g>

  <g transform="translate(80 74)">
    <rect x="0" y="0" width="74" height="74" rx="24" fill="#F8FBFF" fill-opacity="0.95"/>
    <g stroke="#1B8EFF" stroke-width="5" stroke-linecap="round">
      <path d="M16 35V39"/>
      <path d="M25 28V46"/>
      <path d="M34 21V53"/>
      <path d="M43 21V53"/>
      <path d="M52 28V46"/>
      <path d="M61 35V39"/>
    </g>
  </g>

  <text x="176" y="112" fill="#FFFFFF" font-size="54" font-family="Georgia, 'Times New Roman', serif" font-weight="700">VoiceWave</text>
  <text x="176" y="150" fill="#DDF2FF" font-size="18" font-family="'Segoe UI', Arial, sans-serif" letter-spacing="1.8">LOCAL DICTATION CORE</text>

  <text x="80" y="228" fill="#FFFFFF" font-size="56" font-family="Georgia, 'Times New Roman', serif" font-weight="700">Private Dictation, Engineered.</text>
  <text x="80" y="268" fill="#D7ECFF" font-size="22" font-family="'Segoe UI', Arial, sans-serif">Tauri + Rust + whisper.cpp with deterministic local runtime contracts.</text>

  <g transform="translate(80 302)">
    <rect x="0" y="0" width="200" height="42" rx="21" fill="#FFFFFF" fill-opacity="0.12" stroke="#FFFFFF" stroke-opacity="0.3"/>
    <text x="20" y="27" fill="#EAF7FF" font-size="13" font-family="'Segoe UI', Arial, sans-serif" letter-spacing="0.8">WINDOWS-FIRST ROLLOUT</text>

    <rect x="218" y="0" width="160" height="42" rx="21" fill="#FFFFFF" fill-opacity="0.12" stroke="#FFFFFF" stroke-opacity="0.3"/>
    <text x="242" y="27" fill="#EAF7FF" font-size="13" font-family="'Segoe UI', Arial, sans-serif" letter-spacing="0.8">LOCAL-ONLY V1</text>

    <rect x="396" y="0" width="230" height="42" rx="21" fill="#FFFFFF" fill-opacity="0.12" stroke="#FFFFFF" stroke-opacity="0.3"/>
    <text x="420" y="27" fill="#EAF7FF" font-size="13" font-family="'Segoe UI', Arial, sans-serif" letter-spacing="0.8">FALLBACK-SAFE INSERTION</text>
  </g>
</svg>
