<svg width="1280" height="360" viewBox="0 0 1280 360" fill="none" xmlns="http://www.w3.org/2000/svg">
  <defs>
    <linearGradient id="card" x1="0" y1="0" x2="0" y2="1">
      <stop stop-color="#FFFFFF" stop-opacity="0.98"/>
      <stop offset="1" stop-color="#F8FBFF" stop-opacity="0.98"/>
    </linearGradient>
    <linearGradient id="arrow" x1="0" y1="0" x2="1" y2="0">
      <stop stop-color="#0032B8"/>
      <stop offset="1" stop-color="#7ED8FF"/>
    </linearGradient>
  </defs>

  <rect width="1280" height="360" rx="24" fill="#F7FBFF"/>
  <rect x="1" y="1" width="1278" height="358" rx="23" stroke="#D7DEE6"/>

  <g font-family="'Segoe UI', Arial, sans-serif" fill="#09090B">
    <rect x="44" y="100" width="230" height="160" rx="18" fill="url(#card)" stroke="#D7DEE6"/>
    <text x="68" y="138" font-size="14" fill="#475569">Stage 01</text>
    <text x="68" y="172" font-size="28" font-weight="700">Capture</text>
    <text x="68" y="202" font-size="14" fill="#334155">cpal microphone input</text>

    <rect x="352" y="100" width="230" height="160" rx="18" fill="url(#card)" stroke="#D7DEE6"/>
    <text x="376" y="138" font-size="14" fill="#475569">Stage 02</text>
    <text x="376" y="172" font-size="28" font-weight="700">Decode</text>
    <text x="376" y="202" font-size="14" fill="#334155">whisper.cpp via Rust</text>

    <rect x="660" y="100" width="230" height="160" rx="18" fill="url(#card)" stroke="#D7DEE6"/>
    <text x="684" y="138" font-size="14" fill="#475569">Stage 03</text>
    <text x="684" y="172" font-size="28" font-weight="700">Insert</text>
    <text x="684" y="202" font-size="14" fill="#334155">direct -> clipboard -> history</text>

    <rect x="968" y="100" width="268" height="160" rx="18" fill="url(#card)" stroke="#D7DEE6"/>
    <text x="992" y="138" font-size="14" fill="#475569">Stage 04</text>
    <text x="992" y="172" font-size="28" font-weight="700">Persist + UX</text>
    <text x="992" y="202" font-size="14" fill="#334155">history, dictionary, diagnostics</text>
  </g>

  <g stroke="url(#arrow)" stroke-width="4" stroke-linecap="round" stroke-linejoin="round">
    <path d="M282 180H338"/>
    <path d="M328 170L338 180L328 190"/>

    <path d="M590 180H646"/>
    <path d="M636 170L646 180L636 190"/>

    <path d="M898 180H954"/>
    <path d="M944 170L954 180L944 190"/>
  </g>

  <text x="44" y="62" fill="#09090B" font-size="34" font-family="Georgia, 'Times New Roman', serif" font-weight="700">VoiceWave Runtime Pipeline</text>
  <text x="44" y="84" fill="#475569" font-size="14" font-family="'Segoe UI', Arial, sans-serif">Deterministic local-only dictation flow (Windows execution scope in current branch)</text>
</svg>
